<svg xmlns="http://www.w3.org/2000/svg" xmlns:xlink="http://www.w3.org/1999/xlink" width="500" zoomAndPan="magnify" viewBox="0 0 375 374.999991" height="500" preserveAspectRatio="xMidYMid meet" version="1.0"><defs><clipPath id="03bb5fb076"><path d="M 187.5 0 C 83.945312 0 0 83.945312 0 187.5 C 0 291.054688 83.945312 375 187.5 375 C 291.054688 375 375 291.054688 375 187.5 C 375 83.945312 291.054688 0 187.5 0 Z M 187.5 0 " clip-rule="nonzero"/></clipPath><clipPath id="3c54ed84e2"><path d="M 113 130 L 262 130 L 262 245.25 L 113 245.25 Z M 113 130 " clip-rule="nonzero"/></clipPath></defs><g clip-path="url(#03bb5fb076)"><rect x="-37.5" width="450" fill="#0091ff" y="-37.499999" height="449.999989" fill-opacity="1"/></g><g clip-path="url(#3c54ed84e2)"><path fill="#ffffff" d="M 257.777344 134.46875 C 253.058594 129.75 245.414062 129.75 240.695312 134.46875 L 164.074219 211.089844 L 134.304688 181.320312 C 129.589844 176.601562 121.941406 176.601562 117.222656 181.320312 C 112.507812 186.035156 112.507812 193.683594 117.222656 198.402344 L 164.074219 245.253906 L 172.613281 236.710938 L 257.777344 151.550781 C 262.492188 146.832031 262.492188 139.1875 257.777344 134.46875 " fill-opacity="1" fill-rule="nonzero"/></g></svg>